<?xml version="1.0" encoding="UTF-8" standalone="no"?>
<!-- Created with Inkscape (http://www.inkscape.org/) -->

<svg
   width="2048"
   height="2048"
   viewBox="0 0 2048 2048"
   version="1.1"
   id="svg1"
   inkscape:version="1.3.2 (091e20ef0f, 2023-11-25)"
   sodipodi:docname="pngtube2.svg"
   xml:space="preserve"
   inkscape:export-filename="talkeyesclosed.png"
   inkscape:export-xdpi="96"
   inkscape:export-ydpi="96"
   xmlns:inkscape="http://www.inkscape.org/namespaces/inkscape"
   xmlns:sodipodi="http://sodipodi.sourceforge.net/DTD/sodipodi-0.dtd"
   xmlns:xlink="http://www.w3.org/1999/xlink"
   xmlns="http://www.w3.org/2000/svg"
   xmlns:svg="http://www.w3.org/2000/svg"><sodipodi:namedview
     id="namedview1"
     pagecolor="#ffffff"
     bordercolor="#000000"
     borderopacity="0.25"
     inkscape:showpageshadow="2"
     inkscape:pageopacity="0.0"
     inkscape:pagecheckerboard="0"
     inkscape:deskcolor="#d1d1d1"
     inkscape:document-units="px"
     inkscape:zoom="0.29259255"
     inkscape:cx="652.78491"
     inkscape:cy="772.40519"
     inkscape:window-width="2560"
     inkscape:window-height="1378"
     inkscape:window-x="0"
     inkscape:window-y="30"
     inkscape:window-maximized="1"
     inkscape:current-layer="svg1"
     showguides="true" /><defs
     id="defs1"><inkscape:path-effect
       effect="fillet_chamfer"
       id="path-effect15"
       is_visible="true"
       lpeversion="1"
       nodesatellites_param="F,0,0,1,0,10,0,1 @ F,0,0,1,0,10,0,1 @ F,0,0,1,0,10,0,1 @ F,0,0,1,0,10,0,1 | F,0,0,1,0,10,0,1 @ F,0,0,1,0,10,0,1 @ F,0,0,1,0,10,0,1 @ F,0,0,1,0,10,0,1 | F,0,0,1,0,10,0,1 @ F,0,0,1,0,10,0,1 @ F,0,0,1,0,10,0,1 @ F,0,0,1,0,10,0,1 | F,0,0,1,0,10,0,1 @ F,0,0,1,0,10,0,1 @ F,0,0,1,0,10,0,1 @ F,0,0,1,0,10,0,1 | F,0,0,1,0,10,0,1 @ F,0,0,1,0,10,0,1 @ F,0,0,1,0,10,0,1 @ F,0,0,1,0,10,0,1 | F,0,0,1,0,10,0,1 @ F,0,0,1,0,10,0,1 @ F,0,0,1,0,10,0,1 @ F,0,0,1,0,10,0,1 | F,0,0,1,0,10,0,1 @ F,0,0,1,0,10,0,1 @ F,0,0,1,0,10,0,1 @ F,0,0,1,0,10,0,1 | F,0,0,1,0,10,0,1 @ F,0,0,1,0,10,0,1 @ F,0,0,1,0,10,0,1 @ F,0,0,1,0,10,0,1 | F,0,0,1,0,10,0,1 @ F,0,0,1,0,10,0,1 @ F,0,0,1,0,10,0,1 @ F,0,0,1,0,10,0,1"
       radius="10"
       unit="px"
       method="auto"
       mode="F"
       chamfer_steps="1"
       flexible="false"
       use_knot_distance="true"
       apply_no_radius="true"
       apply_with_radius="true"
       only_selected="false"
       hide_knots="false" /><linearGradient
       id="linearGradient5"
       inkscape:collect="always"><stop
         style="stop-color:#9bdb4d;stop-opacity:1"
         offset="0"
         id="stop5" /><stop
         style="stop-color:#9bdb4d;stop-opacity:1"
         offset="0.31949314"
         id="stop8" /><stop
         style="stop-color:#68b723;stop-opacity:1"
         offset="0.33768132"
         id="stop7" /><stop
         style="stop-color:#68b723;stop-opacity:1"
         offset="0.66695714"
         id="stop9" /><stop
         style="stop-color:#3a9104;stop-opacity:1"
         offset="0.68867379"
         id="stop10" /><stop
         style="stop-color:#3a9104;stop-opacity:1;"
         offset="1"
         id="stop6" /></linearGradient><radialGradient
       inkscape:collect="always"
       xlink:href="#linearGradient5"
       id="radialGradient6"
       cx="848.35419"
       cy="966.34344"
       fx="848.35419"
       fy="966.34344"
       r="67.14072"
       gradientTransform="matrix(3.6260192,0,0,3.6292526,-2294.8024,-2332.0411)"
       gradientUnits="userSpaceOnUse" /><filter
       inkscape:collect="always"
       style="color-interpolation-filters:sRGB"
       id="filter14"
       x="-0.42461522"
       y="-0.84923043"
       width="1.8492304"
       height="2.6984609"><feGaussianBlur
         inkscape:collect="always"
         stdDeviation="20.548917"
         id="feGaussianBlur14" /></filter><filter
       inkscape:collect="always"
       style="color-interpolation-filters:sRGB"
       id="filter15"
       x="-0.42461522"
       y="-0.84923043"
       width="1.8492304"
       height="2.6984609"><feGaussianBlur
         inkscape:collect="always"
         stdDeviation="20.548917"
         id="feGaussianBlur15" /></filter><filter
       inkscape:collect="always"
       style="color-interpolation-filters:sRGB"
       id="filter16"
       x="-0.0090337702"
       y="-0.04079078"
       width="1.0180675"
       height="1.0815816"><feGaussianBlur
         inkscape:collect="always"
         stdDeviation="4.4893922"
         id="feGaussianBlur16" /></filter><radialGradient
       inkscape:collect="always"
       xlink:href="#linearGradient5"
       id="radialGradient6-7"
       cx="848.35419"
       cy="966.34344"
       fx="848.35419"
       fy="966.34344"
       r="67.140717"
       gradientTransform="matrix(3.6260192,0,0,3.6292526,-1801.176,-2332.0411)"
       gradientUnits="userSpaceOnUse" /><mask
       maskUnits="userSpaceOnUse"
       id="mask15"><path
         style="font-variation-settings:normal;vector-effect:none;fill:#ffffff;fill-opacity:1;stroke:none;stroke-width:10.5752;stroke-linecap:round;stroke-linejoin:round;stroke-miterlimit:4;stroke-dasharray:none;stroke-dashoffset:0;stroke-opacity:1;-inkscape-stroke:none;paint-order:stroke markers fill;stop-color:#000000"
         d="m 907.8482,1478.656 -17.1751,-4.2075 c -56.5294,-13.8482 -135.2567,-47.8059 -196.1752,-84.6167 -29.2972,-17.7033 -61.4313,-40.917 -76.2854,-55.1087 -11.0711,-10.5774 -18.9148,-21.8865 -29.8545,-43.0442 -6.127,-11.85 -7.8858,-14.5289 -8.7628,-13.3471 -5.9324,7.9934 -14.6668,14.9912 -21.8268,17.487 -4.0006,1.3945 -8.1619,1.8321 -17.2705,1.8161 -10.2779,-0.018 -13.8656,-0.4983 -25,-3.3464 -36.7533,-9.4016 -74.7697,-28.1551 -100.316,-49.4861 -14.8748,-12.4204 -29.9094,-29.3542 -41.8588,-47.1464 -24.5707,-36.5848 -38.8229,-85.9366 -36.9649,-128 1.4355,-32.4969 10.9006,-57.7174 28.1255,-74.94234 14.1769,-14.1768 35.1681,-22.9237 57.0717,-23.7813 l 7.0575,-0.2764 -3.8181,-6.5 c -5.6549,-9.6269 -23.7434,-46.8392 -25.2766,-52 -303.1193,-1020.29143 1562.1436,-987.281229 1249.4716,-1.4997 -2.0845,6.5717 -19.0984,41.9805 -25.4513,52.9687 -2.0384,3.5256 -3.0411,6.222 -2.4496,6.5875 0.5508,0.3404 3.7804,0.7192 7.1771,0.8418 20.0715,0.7243 41.4785,9.892 55.2461,23.6596 25.7584,25.75844 34.4665,70.70244 23.9001,123.35224 -9.8809,49.2337 -37.0408,95.3762 -74.5983,126.7365 -25.5463,21.331 -63.5627,40.0845 -100.316,49.4861 -11.1344,2.8481 -14.7221,3.3284 -25,3.3464 -9.1086,0.016 -13.2699,-0.4216 -17.2705,-1.8161 -7.16,-2.4958 -15.8944,-9.4936 -21.8268,-17.487 -0.877,-1.1818 -2.6357,1.4971 -8.7628,13.3471 -10.9397,21.1577 -18.7834,32.4668 -29.8545,43.0442 -14.8541,14.1917 -46.9881,37.4054 -76.2854,55.1087 -60.9184,36.8108 -139.6458,70.7685 -196.1752,84.6167 l -17.1751,4.2075 -20.3591,3.9578 c -0.2016,-0.2015 -3.2744,0.042 -6.8285,0.5416 -24.3344,3.4194 -45.5195,4.4882 -88.9621,4.4882 -43.4426,0 -64.6277,-1.0688 -88.962,-4.4882 -3.5542,-0.4994 -6.627,-0.7431 -6.8286,-0.5416 z"
         id="path15" /></mask></defs><path
     id="path2"
     style="font-variation-settings:normal;vector-effect:none;fill:#cc3b02;fill-opacity:1;stroke-width:7.05012;stroke-linecap:round;stroke-linejoin:round;stroke-miterlimit:4;stroke-dasharray:none;stroke-dashoffset:0;stroke-opacity:1;-inkscape-stroke:none;paint-order:stroke markers fill;stop-color:#000000"
     d="m 1028.2204,1850.5557 c 90.3541,80.3205 449.1084,76.2776 449.1084,76.2776 -53.6751,-61.6857 -40.9309,-98.2507 -40.9309,-98.2507 116.6269,160.1835 229.9899,66.7594 229.9899,66.7594 -156.3825,-72.1008 -129.4395,-190.6323 -129.4395,-190.6323 35.5361,18.7384 86.1129,116.1412 86.1129,116.1412 24.6674,-99.5081 -10.7475,-178.267 -10.7475,-178.267 69.4017,88.7898 192.078,69.7164 192.078,69.7164 C 1618.0503,1585.2995 1693.6931,887.00532 1693.6931,887.00532 H 354.30693 c 0,0 75.6428,698.29418 -110.6987,825.29498 0,0 122.6766,19.0734 192.0781,-69.7164 0,0 -35.4149,78.7589 -10.7473,178.267 0,0 50.5766,-97.4028 86.1127,-116.1412 0,0 26.9431,118.5315 -129.4393,190.6323 0,0 113.3627,93.4241 229.9897,-66.7594 0,0 12.7444,36.565 -40.9307,98.2507 0,0 358.754,4.0429 449.10817,-76.2776 z"
     sodipodi:nodetypes="ccccccccccccccccccc"
     inkscape:label="Hair Back" /><path
     id="path6-1-7"
     style="font-variation-settings:normal;opacity:1;vector-effect:none;fill:#f0d7c0;fill-opacity:1;stroke:none;stroke-width:10.5752;stroke-linecap:round;stroke-linejoin:round;stroke-miterlimit:4;stroke-dasharray:none;stroke-dashoffset:0;stroke-opacity:1;-inkscape-stroke:none;paint-order:stroke markers fill;stop-color:#000000;stop-opacity:1"
     inkscape:label="Body"
     d="M 907.84961,1477.1074 908.57617,1488 c 0.3996,4.675 0.76169,16.15 0.80469,25.5 0.1171,25.6863 -2.23179,31.3681 -15.70508,37.9922 -9.43179,4.6371 -23.572,8.1189 -38.58397,9.5 -17.7969,1.6373 -37.7442,-0.1862 -75.5918,-6.9063 -33.0319,-5.865 -53.7298,-5.1353 -84.291,2.9688 -45.5116,12.0685 -95.1652,45.1671 -132.6836,88.4453 -18.7803,21.6635 -51.2051,68.027 -76.23051,109 -6.0467,9.9 -22.9612,38.9667 -37.5859,64.5938 -24.8349,43.5187 -73.1383,125.8511 -93.2285,158.9062 -11.0621,18.2009 -26.06009,40.717 -38.1368,57.25 L 308.02931,2048 H 1739.9707 l -9.3145,-12.75 c -12.0766,-16.533 -27.0746,-39.0491 -38.1367,-57.25 -20.0903,-33.0551 -68.3935,-115.3855 -93.2285,-158.9043 -14.6247,-25.6271 -31.5392,-54.6957 -37.5859,-64.5957 -25.0254,-40.973 -57.4502,-87.3365 -76.2305,-109 -37.5185,-43.2782 -87.172,-76.3768 -132.6836,-88.4453 -30.5613,-8.1041 -51.2591,-8.8338 -84.291,-2.9688 -37.8476,6.7201 -57.7949,8.5436 -75.5918,6.9063 -15.012,-1.3811 -29.1522,-4.8629 -38.584,-9.5 -13.4733,-6.6241 -15.8223,-12.3059 -15.7051,-37.9922 0.043,-9.35 0.4924,-20.8184 0.8047,-25.5 l 0.7266,-10.8926 z"
     sodipodi:nodetypes="cccssssssssccccsssssssssscc" /><path
     id="path6-1-7-4"
     style="font-variation-settings:normal;vector-effect:none;fill:#fafafa;fill-opacity:1;stroke:none;stroke-width:10.5752;stroke-linecap:round;stroke-linejoin:round;stroke-miterlimit:4;stroke-dasharray:none;stroke-dashoffset:0;stroke-opacity:1;-inkscape-stroke:none;paint-order:stroke markers fill;stop-color:#000000"
     inkscape:label="Body"
     d="M 641.79883 1579.7461 C 613.31041 1596.1405 585.61543 1618.8652 562.52539 1645.5 C 543.74511 1667.1635 511.32031 1713.527 486.29492 1754.5 C 480.24823 1764.4 463.33367 1793.4667 448.70898 1819.0938 C 423.87411 1862.6124 375.57065 1944.9449 355.48047 1978 C 344.41838 1996.2009 329.42045 2018.717 317.34375 2035.25 L 308.0293 2048 L 1739.9707 2048 L 1730.6562 2035.25 C 1718.5797 2018.717 1703.5816 1996.2009 1692.5195 1978 C 1672.4293 1944.9449 1624.126 1862.6145 1599.291 1819.0957 C 1584.6663 1793.4686 1567.7518 1764.4 1561.7051 1754.5 C 1536.6797 1713.527 1504.2549 1667.1635 1485.4746 1645.5 C 1462.3845 1618.8652 1434.6896 1596.1405 1406.2012 1579.7461 A 450.82114 273.20374 0 0 1 1024 1708.8906 A 450.82114 273.20374 0 0 1 641.79883 1579.7461 z " /><path
     style="font-variation-settings:normal;vector-effect:none;fill:#1a1a1a;fill-opacity:1;stroke-width:1;stroke-linecap:butt;stroke-linejoin:miter;stroke-miterlimit:4;stroke-dasharray:none;stroke-dashoffset:0;stroke-opacity:1;-inkscape-stroke:none;stop-color:#000000"
     d="m 928.2094,1481.0649 c -0.285,0 0.544,7.1866 1.6567,12.5975 4.9505,24.0729 5.4283,45.326 1.278,56.8382 -7.3347,20.3452 -27.4708,33.2582 -62.6441,40.1727 -6.8692,1.3504 -13.8535,1.7624 -29.5,1.7401 -21.3509,-0.03 -27.4046,-0.6588 -61.5,-6.384 -21.8402,-3.6674 -32.7266,-4.4168 -44.444,-3.0594 -32.3776,3.7509 -64.9702,18.9423 -99.3538,46.3088 -28.8759,22.9828 -50.7512,48.8428 -85.2019,100.7218 -19.8306,29.8627 -35.5202,55.8211 -65.154,107.7966 -21.0516,36.923 -72.0303,122.72 -89.8784,151.2653 -10.562,16.8922 -22.1205,34.1867 -31.8573,47.6668 l -8.1106,11.2287 -22.7352,0.021 -22.7353,0.021 9.3133,-12.7502 c 12.0767,-16.533 27.0764,-39.0491 38.1385,-57.25 20.0903,-33.0551 68.3934,-115.3864 93.2283,-158.9052 14.6247,-25.6271 31.5377,-54.6948 37.5844,-64.5948 25.0254,-40.973 57.4505,-87.3365 76.2308,-109 37.5185,-43.2782 87.1726,-76.3769 132.6842,-88.4454 30.5613,-8.1041 51.2591,-8.8328 84.291,-2.9678 37.8476,6.7201 57.7944,8.5421 75.5913,6.9048 15.012,-1.3811 29.1534,-4.8628 38.5852,-9.4999 13.4733,-6.6241 15.8218,-12.3054 15.7047,-37.9917 -0.043,-9.35 -0.4046,-20.825 -0.8042,-25.5 l -0.7267,-10.8929 z m 211.9403,-3.9578 -0.7267,10.8929 c -0.3123,4.6816 -0.7615,16.15 -0.8041,25.5 -0.1172,25.6863 2.2313,31.3676 15.7046,37.9917 9.4318,4.6371 23.5732,8.1188 38.5852,9.4999 17.7969,1.6373 37.7437,-0.1847 75.5913,-6.9048 33.0319,-5.865 53.7297,-5.1363 84.291,2.9678 45.5116,12.0685 95.1657,45.1672 132.6842,88.4454 18.7803,21.6635 51.2054,68.027 76.2308,109 6.0467,9.9 22.9597,38.9677 37.5844,64.5948 24.835,43.5188 73.138,125.8501 93.2283,158.9052 11.0621,18.2009 26.0618,40.717 38.1385,57.25 l 9.3133,12.75 -22.7352,-0.021 -22.7353,-0.021 -8.1106,-11.2287 c -9.7368,-13.4801 -21.2952,-30.7746 -31.8573,-47.6668 -17.8481,-28.5453 -68.8267,-114.3423 -89.8784,-151.2653 -29.6337,-51.9755 -45.3234,-77.9339 -65.154,-107.7966 -34.4507,-51.879 -56.326,-77.739 -85.2019,-100.7218 -34.3836,-27.3665 -66.9762,-42.5579 -99.3538,-46.3088 -11.7173,-1.3574 -22.6038,-0.608 -44.444,3.0594 -34.0954,5.7252 -40.1491,6.3536 -61.5,6.384 -15.6465,0.022 -22.6308,-0.3897 -29.5,-1.7401 -35.1732,-6.9145 -55.3094,-19.8275 -62.6441,-40.1727 -4.1503,-11.5122 -3.6724,-32.7653 1.278,-56.8382 1.1127,-5.4109 1.9417,-12.5975 1.6567,-12.5975 z"
     id="path6-1"
     sodipodi:nodetypes="cssssssssssscccssssssssssscccssssssssssscccssssssssssscc"
     inkscape:label="Body" /><g
     id="g15"
     inkscape:label="Head"
     mask="url(#mask15)"><path
       style="font-variation-settings:normal;vector-effect:none;fill:#f0d7c0;fill-opacity:1;stroke:none;stroke-width:10.5752;stroke-linecap:round;stroke-linejoin:round;stroke-miterlimit:4;stroke-dasharray:none;stroke-dashoffset:0;stroke-opacity:1;-inkscape-stroke:none;paint-order:stroke markers fill;stop-color:#000000"
       d="m 907.8482,1478.656 -17.1751,-4.2075 c -56.5294,-13.8482 -135.2567,-47.8059 -196.1752,-84.6167 -29.2972,-17.7033 -61.4313,-40.917 -76.2854,-55.1087 -11.0711,-10.5774 -18.9148,-21.8865 -29.8545,-43.0442 -6.127,-11.85 -7.8858,-14.5289 -8.7628,-13.3471 -5.9324,7.9934 -14.6668,14.9912 -21.8268,17.487 -4.0006,1.3945 -8.1619,1.8321 -17.2705,1.8161 -10.2779,-0.018 -13.8656,-0.4983 -25,-3.3464 -36.7533,-9.4016 -74.7697,-28.1551 -100.316,-49.4861 -14.8748,-12.4204 -29.9094,-29.3542 -41.8588,-47.1464 -24.5707,-36.5848 -38.8229,-85.9366 -36.9649,-128 1.4355,-32.4969 10.9006,-57.7174 28.1255,-74.94234 14.1769,-14.1768 35.1681,-22.9237 57.0717,-23.7813 l 7.0575,-0.2764 -3.8181,-6.5 c -5.6549,-9.6269 -23.7434,-46.8392 -25.2766,-52 -303.1193,-1020.29143 1562.1436,-987.281229 1249.4716,-1.4997 -2.0845,6.5717 -19.0984,41.9805 -25.4513,52.9687 -2.0384,3.5256 -3.0411,6.222 -2.4496,6.5875 0.5508,0.3404 3.7804,0.7192 7.1771,0.8418 20.0715,0.7243 41.4785,9.892 55.2461,23.6596 25.7584,25.75844 34.4665,70.70244 23.9001,123.35224 -9.8809,49.2337 -37.0408,95.3762 -74.5983,126.7365 -25.5463,21.331 -63.5627,40.0845 -100.316,49.4861 -11.1344,2.8481 -14.7221,3.3284 -25,3.3464 -9.1086,0.016 -13.2699,-0.4216 -17.2705,-1.8161 -7.16,-2.4958 -15.8944,-9.4936 -21.8268,-17.487 -0.877,-1.1818 -2.6357,1.4971 -8.7628,13.3471 -10.9397,21.1577 -18.7834,32.4668 -29.8545,43.0442 -14.8541,14.1917 -46.9881,37.4054 -76.2854,55.1087 -60.9184,36.8108 -139.6458,70.7685 -196.1752,84.6167 l -17.1751,4.2075 -20.3591,3.9578 c -0.2016,-0.2015 -3.2744,0.042 -6.8285,0.5416 -24.3344,3.4194 -45.5195,4.4882 -88.9621,4.4882 -43.4426,0 -64.6277,-1.0688 -88.962,-4.4882 -3.5542,-0.4994 -6.627,-0.7431 -6.8286,-0.5416 z"
       id="path6-1-9-8"
       inkscape:label="Skin" /><ellipse
       style="font-variation-settings:normal;opacity:0.623385;vector-effect:none;fill:#fe9ab8;fill-opacity:1;stroke-width:4;stroke-linecap:round;stroke-linejoin:round;stroke-miterlimit:4;stroke-dasharray:none;stroke-dashoffset:0;stroke-opacity:1;-inkscape-stroke:none;paint-order:stroke markers fill;filter:url(#filter14)"
       id="path3"
       cx="1184.9904"
       cy="1239.2903"
       rx="58.073051"
       ry="29.036526"
       transform="matrix(1.7625316,0,0,1.7625316,-713.4535,-908.151)"
       inkscape:label="Blush Right" /><ellipse
       style="font-variation-settings:normal;opacity:0.623385;vector-effect:none;fill:#fe9ab8;fill-opacity:1;stroke-width:4;stroke-linecap:round;stroke-linejoin:round;stroke-miterlimit:4;stroke-dasharray:none;stroke-dashoffset:0;stroke-opacity:1;-inkscape-stroke:none;paint-order:stroke markers fill;filter:url(#filter15)"
       id="path3-1"
       cx="791.14844"
       cy="1239.2903"
       rx="58.073051"
       ry="29.036526"
       transform="matrix(1.7625316,0,0,1.7625316,-713.4535,-908.151)"
       inkscape:label="Blush Left" /><path
       style="fill:#1a1a1a"
       d="m 907.8482,1478.656 -17.1751,-4.2075 c -56.5294,-13.8482 -135.2567,-47.8059 -196.1752,-84.6167 -29.2972,-17.7033 -61.4313,-40.917 -76.2854,-55.1087 -11.0711,-10.5774 -18.9148,-21.8865 -29.8545,-43.0442 -6.127,-11.85 -7.8858,-14.5289 -8.7628,-13.3471 -5.9324,7.9934 -14.6668,14.9912 -21.8268,17.487 -4.0006,1.3945 -8.1619,1.8321 -17.2705,1.8161 -10.2779,-0.018 -13.8656,-0.4983 -25,-3.3464 -36.7533,-9.4016 -74.7697,-28.1551 -100.316,-49.4861 -14.8748,-12.4204 -29.9094,-29.3542 -41.8588,-47.1464 -24.5707,-36.5848 -38.8229,-85.9366 -36.9649,-128 1.4355,-32.4969 10.9006,-57.7174 28.1255,-74.94234 14.1769,-14.1768 35.1681,-22.9237 57.0717,-23.7813 l 7.0575,-0.2763 -3.8181,-6.5 c -5.6549,-9.627 -23.7434,-46.8393 -25.2766,-52 -303.1193,-1020.29153 1562.1436,-987.281329 1249.4716,-1.4998 -2.0845,6.5717 -19.0984,41.9806 -25.4513,52.9687 -2.0384,3.5256 -3.0411,6.222 -2.4496,6.5875 0.5508,0.3404 3.7804,0.7192 7.1771,0.8418 20.0715,0.7243 41.4785,9.892 55.2461,23.6597 25.7584,25.75834 34.4665,70.70234 23.9001,123.35214 -9.8809,49.2337 -37.0408,95.3762 -74.5983,126.7365 -25.5463,21.331 -63.5627,40.0845 -100.316,49.4861 -11.1344,2.8481 -14.7221,3.3284 -25,3.3464 -9.1086,0.016 -13.2699,-0.4216 -17.2705,-1.8161 -7.16,-2.4958 -15.8944,-9.4936 -21.8268,-17.487 -0.877,-1.1818 -2.6357,1.4971 -8.7628,13.3471 -10.9397,21.1577 -18.7834,32.4668 -29.8545,43.0442 -14.8541,14.1917 -46.9881,37.4054 -76.2854,55.1087 -60.9184,36.8108 -139.6458,70.7685 -196.1752,84.6167 l -17.1751,4.2075 -20.3591,3.9578 c -0.2016,-0.2015 -3.2744,0.042 -6.8285,0.5416 -24.3344,3.4194 -45.5195,4.4882 -88.9621,4.4882 -43.4426,0 -64.6277,-1.0688 -88.962,-4.4882 -3.5542,-0.4994 -6.627,-0.7431 -6.8286,-0.5416 z m 146.1497,-16.1121 c 31.9346,-3.1302 72.9331,-11.2121 103.5,-20.4026 84.6189,-25.4421 184.9863,-74.5208 242.6284,-118.6431 17.9785,-13.7616 23.1491,-20.1596 38.5764,-47.7335 8.2082,-14.6708 73.4694,-144.7678 72.9042,-145.333 l 18.7721,-37.3645 17.2812,-33.9451 c 9.5048,-18.6698 19.2983,-37.0066 21.7635,-40.7485 2.4651,-3.7419 7.3875,-12.8591 10.9385,-20.26054 512.3485,-1067.896329 -1624.8468,-1067.413429 -1112.7285,0 3.551,7.40144 8.4733,16.51864 10.9384,20.26054 2.4652,3.7419 12.2588,22.0787 21.7635,40.7485 l 17.2813,33.9451 18.772,37.3645 c -0.5652,0.5652 64.696,130.6622 72.9042,145.333 15.4273,27.5739 20.5979,33.9719 38.5764,47.7335 53.4492,40.9127 141.0932,84.9742 224.1284,112.6765 43.9455,14.6612 89.1265,23.8671 137,27.9146 11.9235,1.0081 22.7376,0.6367 45,-1.5454 z M 561.1977,1264.6946 c 2.9151,-1.4121 6.4955,-3.5735 7.9563,-4.8031 l 2.6561,-2.2355 -6.7152,-14.5 c -3.6934,-7.975 -17.427,-35.5685 -30.5191,-61.3188 l -23.804,-46.8188 -15.0023,-28.7905 c -0.1459,-0.387 -7.2385,-16.1972 -16.4174,-35.1366 -9.1789,-18.9394 -21.9121,-45.6853 -28.2961,-59.4353 -9.7469,-20.99294 -11.9709,-25.05214 -13.8761,-25.32524 -4.2963,-0.6159 -22.6724,4.8892 -32.8707,9.8474 -8.0417,3.90964 -11.6581,6.40264 -17.162,11.83054 -15.5438,15.3295 -22.9588,41.9029 -20.2215,72.4687 5.6661,63.2684 40.1637,120.5439 91.9505,152.6631 22.6301,14.0357 56.4097,27.8067 83.1217,33.8866 6.3847,1.4532 13.0585,0.6424 19.1998,-2.3325 z m 945.4848,2.0127 c 25.1361,-5.343 59.4765,-19.3262 82.442,-33.5698 25.8509,-16.0332 48.3872,-39.343 64.5652,-66.7811 19.6243,-33.283 30.6007,-76.8973 27.3875,-108.8234 -1.477,-14.6762 -3.463,-22.2202 -8.7563,-33.2621 -6.3061,-13.1547 -14.5553,-21.2479 -28.6343,-28.09274 -10.1983,-4.9582 -28.5744,-10.4633 -32.8707,-9.8474 -1.9051,0.2731 -4.1292,4.3323 -13.8761,25.32524 -6.384,13.75 -19.1172,40.4959 -28.2961,59.4353 -9.1789,18.9394 -16.256,34.7558 -16.4174,35.1366 l -12.5445,29.5931 c -1.0746,2.5351 -3.4686,1.1278 -30.0704,53.835 -14.9899,29.7 -28.64,57.2186 -30.3337,61.1524 l -3.0795,7.1524 4.4337,3.1841 c 4.6741,3.3566 13.3707,6.9143 17.0506,6.975 1.2016,0.02 5.2516,-0.6158 9,-1.4126 z"
       id="path6-1-9"
       sodipodi:nodetypes="cssssssssssssscssssssssssssssssscccssccssssccssssssccssssssscssccsssssssssssssssssssssscsss"
       inkscape:label="Outline" /></g><g
     inkscape:groupmode="layer"
     id="layer2"
     inkscape:label="Mouth"><g
       id="g19"
       inkscape:label="MouthOpen"
       style="display:inline"
       transform="translate(-41.93569,-64.969954)"><path
         id="path17"
         style="opacity:1;fill:#1a1a1a;stroke-width:8;stroke-linecap:round;stroke-linejoin:round;paint-order:stroke markers fill"
         d="m 1247.6185,1377.6186 c 0,49.5761 -72.887,131.7062 -182.2822,131.7062 -109.39529,0 -181.08351,-82.8731 -181.08351,-130.6633 0,-47.7902 71.68822,-41.5667 181.08351,-41.5667 109.3952,0 182.2822,-9.0523 182.2822,40.5238 z"
         sodipodi:nodetypes="zszsz" /><path
         id="path19"
         style="font-variation-settings:normal;opacity:1;fill:#f4679d;fill-opacity:1;stroke:none;stroke-width:6.67237;stroke-linecap:round;stroke-linejoin:round;stroke-miterlimit:4;stroke-dasharray:none;stroke-dashoffset:0;stroke-opacity:1;paint-order:stroke markers fill"
         d="m 1070.816,1407.2266 a 219.67509,157.89569 0 0 0 -149.83403,42.7793 c 31.53777,32.1717 81.75333,59.3183 144.35353,59.3183 65.3857,0 117.7113,-29.3438 149.2442,-63.5371 a 219.67509,157.89569 0 0 0 -143.7637,-38.5605 z" /></g><path
       style="font-variation-settings:normal;display:none;vector-effect:none;fill:none;fill-opacity:1;stroke:#000000;stroke-width:7.05012;stroke-linecap:round;stroke-linejoin:round;stroke-miterlimit:4;stroke-dasharray:none;stroke-dashoffset:0;stroke-opacity:1;-inkscape-stroke:none;paint-order:stroke markers fill"
       d="m 1099.6063,1332.7836 c 0,0 -71.4011,71.3293 -153.024,0"
       id="path4"
       inkscape:label="MouthClosed" /></g><g
     id="g14"
     inkscape:label="Eyes"
     style="display:none"><path
       style="font-variation-settings:normal;fill:#fafafa;fill-opacity:1;stroke:none;stroke-width:14.1003;stroke-linecap:round;stroke-linejoin:round;stroke-miterlimit:4;stroke-dasharray:none;stroke-dashoffset:0;stroke-opacity:1;paint-order:stroke markers fill"
       d="M 780.87255,924.53101 C 623.52802,933.95072 553.3737,1041.477 553.3737,1078.6684 c 0,37.1914 46.63025,174.979 227.22954,178.5525 z"
       id="path12"
       sodipodi:nodetypes="czcc" /><ellipse
       style="font-variation-settings:normal;fill:url(#radialGradient6);fill-opacity:1;stroke:#206b00;stroke-width:14.1003;stroke-linecap:round;stroke-linejoin:round;stroke-miterlimit:4;stroke-dasharray:none;stroke-dashoffset:0;stroke-opacity:1;paint-order:stroke markers fill"
       id="path5"
       cx="777.65924"
       cy="1091.5574"
       rx="111.28751"
       ry="162.45512" /><circle
       style="font-variation-settings:normal;fill:#fafafa;fill-opacity:1;stroke:none;stroke-width:14.1003;stroke-linecap:round;stroke-linejoin:round;stroke-miterlimit:4;stroke-dasharray:none;stroke-dashoffset:0;stroke-opacity:1;paint-order:stroke markers fill"
       id="path10"
       cx="699.8158"
       cy="1197.137"
       r="10.989773" /><ellipse
       style="font-variation-settings:normal;fill:#1a1a1a;fill-opacity:1;stroke:none;stroke-width:14.1002;stroke-linecap:round;stroke-linejoin:round;stroke-miterlimit:4;stroke-dasharray:none;stroke-dashoffset:0;stroke-opacity:1;paint-order:stroke markers fill"
       id="path11"
       cx="777.65924"
       cy="1081.3572"
       rx="31.235521"
       ry="72.297546" /><ellipse
       style="font-variation-settings:normal;fill:#fafafa;fill-opacity:1;stroke:none;stroke-width:14.1003;stroke-linecap:round;stroke-linejoin:round;stroke-miterlimit:4;stroke-dasharray:none;stroke-dashoffset:0;stroke-opacity:1;paint-order:stroke markers fill"
       id="path10-7"
       cx="800.65198"
       cy="1006.3579"
       rx="33.53949"
       ry="25.652098" /><path
       style="font-variation-settings:normal;opacity:1;vector-effect:none;fill:#1a1a1a;fill-opacity:1;stroke:none;stroke-width:1;stroke-linecap:butt;stroke-linejoin:miter;stroke-miterlimit:4;stroke-dasharray:none;stroke-dashoffset:0;stroke-opacity:1;-inkscape-stroke:none;paint-order:stroke markers fill;stop-color:#000000;stop-opacity:1"
       d="m 566.88243,1130.0936 c 0,0 -6.83419,-32.178 -33.68329,-59.1564 0,0 8.03151,-177.58154 238.62352,-178.55741 62.21787,0 92.46577,19.84801 129.39571,89.58764 -59.19151,-95.76825 -331.89309,-77.66718 -334.33594,148.12617 z"
       id="path13"
       sodipodi:nodetypes="ccccc" /><path
       style="font-variation-settings:normal;fill:#fafafa;fill-opacity:1;stroke:none;stroke-width:14.1003;stroke-linecap:round;stroke-linejoin:round;stroke-miterlimit:4;stroke-dasharray:none;stroke-dashoffset:0;stroke-opacity:1;paint-order:stroke markers fill"
       d="m 1268.0725,924.53101 c 157.3446,9.41971 227.4989,116.94599 227.4989,154.13739 0,37.1914 -46.6303,174.979 -227.2296,178.5525 z"
       id="path12-4"
       sodipodi:nodetypes="czcc" /><ellipse
       style="font-variation-settings:normal;fill:url(#radialGradient6-7);fill-opacity:1;stroke:#206b00;stroke-width:14.1003;stroke-linecap:round;stroke-linejoin:round;stroke-miterlimit:4;stroke-dasharray:none;stroke-dashoffset:0;stroke-opacity:1;paint-order:stroke markers fill"
       id="path5-7"
       cx="1271.2858"
       cy="1091.5574"
       rx="111.28751"
       ry="162.45512" /><circle
       style="font-variation-settings:normal;fill:#fafafa;fill-opacity:1;stroke:none;stroke-width:14.1003;stroke-linecap:round;stroke-linejoin:round;stroke-miterlimit:4;stroke-dasharray:none;stroke-dashoffset:0;stroke-opacity:1;paint-order:stroke markers fill"
       id="path10-8"
       cx="1193.4423"
       cy="1197.137"
       r="10.989773" /><ellipse
       style="font-variation-settings:normal;fill:#1a1a1a;fill-opacity:1;stroke:none;stroke-width:14.1002;stroke-linecap:round;stroke-linejoin:round;stroke-miterlimit:4;stroke-dasharray:none;stroke-dashoffset:0;stroke-opacity:1;paint-order:stroke markers fill"
       id="path11-4"
       cx="1271.2858"
       cy="1081.3572"
       rx="31.235521"
       ry="72.297546" /><ellipse
       style="font-variation-settings:normal;fill:#fafafa;fill-opacity:1;stroke:none;stroke-width:14.1003;stroke-linecap:round;stroke-linejoin:round;stroke-miterlimit:4;stroke-dasharray:none;stroke-dashoffset:0;stroke-opacity:1;paint-order:stroke markers fill"
       id="path10-7-5"
       cx="1294.2784"
       cy="1006.3579"
       rx="33.53949"
       ry="25.652098" /><path
       style="font-variation-settings:normal;opacity:1;vector-effect:none;fill:#1a1a1a;fill-opacity:1;stroke:none;stroke-width:1;stroke-linecap:butt;stroke-linejoin:miter;stroke-miterlimit:4;stroke-dasharray:none;stroke-dashoffset:0;stroke-opacity:1;-inkscape-stroke:none;paint-order:stroke markers fill;stop-color:#000000;stop-opacity:1"
       d="m 1482.0627,1130.0936 c 0,0 6.8341,-32.178 33.6832,-59.1564 0,0 -8.0315,-177.58154 -238.6235,-178.55741 -62.2179,0 -92.4657,19.84801 -129.3957,89.58764 59.1915,-95.76825 331.8931,-77.66718 334.336,148.12617 z"
       id="path13-0"
       sodipodi:nodetypes="ccccc" /></g><path
     id="path6-1-9-6"
     style="display:inline;fill:#1a1a1a"
     d="m 495.7702,1106.2277 c -0.1494,0.3857 -2.2965,2.2363 -4.7715,4.1113 -2.475,1.8751 -5.1158,4.6822 -5.8672,6.2402 -1.9353,4.013 -1.6212,10.4471 0.6601,13.5079 4.2587,5.7142 10.52,7.3736 21.0782,5.5898 l 3.9023,-0.6582 25.6172,-4.5879 c 0.155,-0.155 7.4428,-2.0486 16.1953,-4.209 20.4023,-5.0359 35.2649,-9.9298 46.209,-15.2168 8.2782,-3.9991 9.1459,-4.2048 17.7051,-4.1718 4.95,0.019 18.675,1.4191 30.5,3.1113 33.1905,4.7498 42.8134,5.5693 66,5.6133 24.3673,0.046 29.7264,-0.5535 66.5,-7.4375 14.3,-2.677 38.5576,-7.1436 53.9062,-9.9258 32.156,-5.8288 42.1054,-8.1548 63.7285,-14.8926 19.0442,-5.9341 22.668,-7.6479 25.6875,-12.1465 3.5466,-5.2838 2.5707,-10.0539 -3.2246,-15.7676 l -4.5547,-4.4902 -66.7714,1.7715 c -111.5199,2.9606 -141.8214,1.7062 -243.2715,-10.0723 -33.961,-3.943 -38.9601,-2.9625 -45.2285,8.8731 -4.1016,7.7443 -22.0172,26.4829 -33.7129,35.2617 l -8.4395,6.3359 z m 1034.6093,-13.1602 -8.4414,-6.3359 c -11.6957,-8.7788 -29.6113,-27.5174 -33.7129,-35.2617 -6.2686,-11.8356 -11.2657,-12.8161 -45.2265,-8.8731 -101.4501,11.7785 -131.7535,13.0329 -243.2735,10.0723 l -66.7714,-1.7715 -4.5547,4.4902 c -5.7953,5.7137 -6.7712,10.4838 -3.2246,15.7676 3.0195,4.4986 6.6433,6.2124 25.6875,12.1465 21.6231,6.7378 31.5725,9.0638 63.7285,14.8926 15.3486,2.7822 39.6082,7.2488 53.9082,9.9258 36.7734,6.884 42.1325,7.4835 66.5,7.4375 23.1864,-0.044 32.8094,-0.8635 66,-5.6133 11.825,-1.6922 25.55,-3.0923 30.5,-3.1113 8.5593,-0.033 9.425,0.1727 17.7031,4.1718 10.9442,5.287 25.8067,10.1809 46.209,15.2168 8.7525,2.1604 16.0403,4.054 16.1953,4.209 l 28.0762,5.3906 c 12.5556,0.7354 14.1384,0.6218 17.3183,-1.2402 4.7566,-2.7853 7.1089,-6.429 7.1739,-11.1152 0.077,-5.5483 -1.8677,-9.1056 -7.1758,-13.127 -2.475,-1.875 -4.6221,-3.7256 -4.7715,-4.1113 z"
     sodipodi:nodetypes="cssscccssssssssssccssccccsssccssssssssssccssscc"
     inkscape:label="Eyes Closed" /><g
     id="g17"
     transform="matrix(1.0045826,0,0,0.96233299,-19.654526,22.896335)"
     inkscape:label="Hair"><path
       style="opacity:1;fill:#f37329;stroke:none;stroke-width:14.6522;stroke-linecap:round;stroke-linejoin:round;stroke-dasharray:none;paint-order:stroke markers fill"
       d="m 759.63682,766.1908 c 0,0 143.49588,226.69602 196.43644,250.8319 0,0 -40.64907,-48.12308 -46.6359,-97.03385 0,0 83.18664,147.88785 386.60324,183.41945 0,0 -133.6471,-58.0069 -99.0881,-265.91656 0,0 22.6747,109.03747 104.1055,131.58438 0,0 -50.0779,-65.16728 -39.6974,-212.65679 0,0 157.4356,108.02135 285.3437,322.84047 0,0 18.3387,-128.26077 13.1416,-190.86377 0,0 25.1972,224.12287 274.3214,297.84577 0,0 -60.0943,-80.1122 -115.5029,-514.45953 0,0 -70.4076,-548.22107 -633.0709,-547.63042 0,0 -588.28831,-48.234436 -694.38959,430.04547 0,0 20.29482,281.462 -240.11826,636.25328 0,0 168.68119,-46.7682 211.19909,-120.8182 0,0 6.51744,51.3583 -4.53327,83.1445 0,0 241.66534,-165.73448 401.88535,-386.5861 z"
       id="path1"
       inkscape:label="Hair Front"
       sodipodi:nodetypes="ccccccccccccccccc" /><path
       id="path1-6"
       style="opacity:0.330583;fill:#ffffff;fill-opacity:1;stroke-width:7.32608;stroke-linecap:round;stroke-linejoin:round;-inkscape-stroke:none;paint-order:stroke markers fill;filter:url(#filter16)"
       d="m 516.38588,362.80122 c -31.13098,41.3389 -56.80137,90.45737 -74.26083,148.87844 -1.5814,5.29152 1.3859,11.26483 6.53864,13.25251 16.53885,6.37991 33.65532,12.48968 51.31142,18.31575 5.24468,1.73061 10.85081,-1.17779 12.50555,-6.44692 l 48.16483,-153.37039 c 1.65474,-5.26913 -1.15432,-11.2207 -6.22909,-13.39959 -8.03964,-3.45189 -15.71688,-6.9883 -23.01897,-10.60336 -4.94937,-2.45029 -11.68926,-1.03812 -15.01155,3.37356 z m 1021.32712,2.60546 c -6.9592,3.15072 -14.2113,6.23441 -21.7469,9.24694 -5.1282,2.05012 -7.8941,7.87851 -6.1396,13.11524 l 50.7458,151.45683 c 1.7545,5.23673 7.4515,8.15023 12.7091,6.45923 18.8666,-6.06809 37.1377,-12.45696 54.768,-19.15069 5.1632,-1.96033 7.703,-7.76554 5.6139,-12.878 -18.3814,-44.98422 -44.4198,-95.56323 -80.8473,-144.49985 -3.2977,-4.43015 -10.0719,-6.02752 -15.103,-3.7497 z m -917.95393,38.61095 -47.33679,150.72633 c -1.65481,5.26911 1.32807,10.70048 6.67356,12.08881 20.90833,5.43028 42.35145,10.48745 64.27228,15.15804 5.40159,1.15089 10.72736,-2.32426 11.88738,-7.72391 l 32.70715,-152.24425 c 1.16002,-5.39965 -2.26655,-10.76466 -7.64043,-12.03866 -16.66202,-3.9501 -32.67816,-8.17059 -47.98525,-12.64482 -5.30101,-1.54947 -10.92309,1.40935 -12.5779,6.67846 z m 789.96413,4.01092 c -3.0891,0.80743 -6.2031,1.60511 -9.3416,2.39291 -5.3566,1.3446 -8.6506,6.7371 -7.3427,12.10285 l 36.8065,151.00635 c 1.3079,5.36575 6.7405,8.75253 12.1253,7.52533 6.8506,-1.56126 13.6512,-3.16097 20.4002,-4.79869 5.367,-1.3024 8.3729,-6.66426 6.7237,-11.93512 l -46.7237,-149.32917 c -1.6492,-5.27086 -7.3044,-8.36109 -12.6477,-6.96446 z m -660.41147,26.29341 -32.60335,151.76499 c -1.16,5.39966 2.32074,10.48345 7.77975,11.3207 5.24627,0.80462 10.51074,1.58808 15.79269,2.35028 5.46622,0.7888 10.57058,-3.0258 11.39613,-8.4866 l 23.0501,-152.47192 c 0.82555,-5.4608 -2.92237,-10.61865 -8.36349,-11.56518 -1.70881,-0.29727 -3.41314,-0.59715 -5.11292,-0.89966 -5.4374,-0.96767 -10.77891,2.58773 -11.93891,7.98739 z m 570.08017,-7.64001 c -51.5032,8.42989 -106.5212,14.46296 -163.3802,17.91517 -5.5127,0.3347 -9.6859,5.04582 -9.3191,10.55648 l 10.2338,153.76927 c 0.3668,5.51066 5.1342,9.72622 10.6465,9.38535 66.1719,-4.09193 131.0091,-11.36389 193.2398,-21.67305 5.4486,-0.90262 8.8006,-6.01254 7.4929,-11.37832 l -36.6831,-150.51028 c -1.3077,-5.36578 -6.7803,-8.95671 -12.2306,-8.06462 z m -482.65226,20.47564 -23.04336,152.42497 c -0.82556,5.4608 2.95314,10.39857 8.44349,10.9968 21.65098,2.3591 43.50914,4.36793 65.52625,6.02203 5.50732,0.41376 10.22955,-3.74556 10.54513,-9.25938 l 8.79714,-153.70418 c 0.31558,-5.51382 -3.8945,-10.3013 -9.40084,-10.72797 -16.67161,-1.29182 -33.16408,-2.80891 -49.43291,-4.54718 -5.49158,-0.58676 -10.60934,3.33411 -11.4349,8.79491 z m 132.73685,9.96895 -8.81353,153.9388 c -0.31569,5.51382 3.90378,10.11059 9.42517,10.2374 2.92556,0.0672 5.8519,0.12819 8.77891,0.183 5.52187,0.10341 9.99866,-4.31401 9.99866,-9.83686 V 457.55511 c 0,-5.52285 -4.4766,-10.07298 -9.99807,-10.19564 -4.87125,-0.10822 -9.07545,4.25325 -9.39114,9.76707 z m 104.02001,-9.19736 c -4.0195,0.0939 -8.0417,0.17503 -12.0662,0.24335 -5.5221,0.0937 -9.999,4.62047 -9.999,10.14332 V 612.5001 c 0,5.52285 4.477,9.95646 9.9992,9.87305 7.8856,-0.11911 15.7671,-0.28311 23.6422,-0.49197 5.5209,-0.14642 9.6985,-4.75656 9.3317,-10.26722 l -10.2472,-153.96698 c -0.3668,-5.51066 -5.1394,-9.84681 -10.6607,-9.7178 z"
       inkscape:path-effect="#path-effect15"
       inkscape:original-d="m 522.49092,354.88136 c -35.61241,45.13947 -64.61003,99.89677 -83.13925,166.40588 a 874.51748,367.90451 0 0 0 70.13283,25.05436 l 54.15715,-172.45159 a 606.59367,193.71178 0 0 1 -41.15073,-19.00865 z m 1024.28708,6.30382 a 606.59367,193.71178 0 0 1 -40.1284,17.10174 l 57.0996,170.42071 a 874.51748,367.90451 0 0 0 73.6317,-25.76819 C 1617.9034,473.29772 1588.995,415.9557 1546.778,361.18518 Z m -924.02264,33.29189 -53.32937,169.80745 a 874.51748,367.90451 0 0 0 83.7291,19.75931 l 36.90797,-171.79811 a 606.59367,193.71178 0 0 1 -67.3077,-17.76865 z m 796.62944,10.9722 a 606.59367,193.71178 0 0 1 -28.714,7.35948 l 41.5427,170.43747 a 874.51748,367.90451 0 0 0 39.8672,-9.3803 z m -667.97271,19.09575 -36.80407,171.31887 a 874.51748,367.90451 0 0 0 35.57415,5.29509 l 26.03966,-172.24722 a 606.59367,193.71178 0 0 1 -24.80974,-4.36674 z m 577.84251,0.48595 a 606.59367,193.71178 0 0 1 -183.2261,20.1447 l 11.562,173.72513 a 874.51748,367.90451 0 0 0 213.083,-23.92835 z m -491.02016,12.23897 -26.03296,172.20027 a 874.51748,367.90451 0 0 0 85.43826,7.85546 l 9.93996,-173.6715 a 606.59367,193.71178 0 0 1 -69.34526,-6.38423 z m 131.81365,9.87295 -9.95673,173.9061 a 874.51748,367.90451 0 0 0 28.77434,0.59989 V 447.55511 a 606.59367,193.71178 0 0 1 -18.81761,-0.41222 z m 113.44501,0.52616 a 606.59367,193.71178 0 0 1 -32.0618,0.6468 V 622.5001 a 874.51748,367.90451 0 0 0 43.6372,-0.90821 z"
       inkscape:label="Hair Shine" /></g></svg>
